<?xml version="1.0" encoding="UTF-8" standalone="no"?>
<!-- Created with Inkscape (http://www.inkscape.org/) -->

<svg
   xmlns:dc="http://purl.org/dc/elements/1.1/"
   xmlns:cc="http://creativecommons.org/ns#"
   xmlns:rdf="http://www.w3.org/1999/02/22-rdf-syntax-ns#"
   xmlns:svg="http://www.w3.org/2000/svg"
   xmlns="http://www.w3.org/2000/svg"
   xmlns:sodipodi="http://sodipodi.sourceforge.net/DTD/sodipodi-0.dtd"
   xmlns:inkscape="http://www.inkscape.org/namespaces/inkscape"
   width="100mm"
   height="240mm"
   viewBox="0 0 100 240"
   version="1.1"
   id="svg871"
   inkscape:version="0.92.2 (5c3e80d, 2017-08-06)"
   sodipodi:docname="colorfulLogo.svg">
  <defs
     id="defs865" />
  <sodipodi:namedview
     id="base"
     pagecolor="#ffffff"
     bordercolor="#666666"
     borderopacity="1.0"
     inkscape:pageopacity="0.0"
     inkscape:pageshadow="2"
     inkscape:zoom="0.35"
     inkscape:cx="-182.85714"
     inkscape:cy="560"
     inkscape:document-units="mm"
     inkscape:current-layer="layer1"
     showgrid="false"
     inkscape:window-width="1920"
     inkscape:window-height="1016"
     inkscape:window-x="0"
     inkscape:window-y="27"
     inkscape:window-maximized="1" />
  <metadata
     id="metadata868">
    <rdf:RDF>
      <cc:Work
         rdf:about="">
        <dc:format>image/svg+xml</dc:format>
        <dc:type
           rdf:resource="http://purl.org/dc/dcmitype/StillImage" />
        <dc:title></dc:title>
      </cc:Work>
    </rdf:RDF>
  </metadata>
  <g
     inkscape:label="Layer 1"
     inkscape:groupmode="layer"
     id="layer1"
     transform="translate(0,-57)">
    <path
       style="opacity:1;fill:#5599ff;fill-opacity:1;stroke:#000000;stroke-width:3;stroke-linecap:round;stroke-linejoin:round;stroke-miterlimit:4;stroke-dasharray:none"
       d="m 96.60484,149.15702 c -0.80181,26.14762 0.38199,29.23314 -5.16359,35.45454 -5.61106,6.29485 -77.368155,4.08835 -77.368155,4.08835 v 0 l 22.81153,-39.54289 H 70.52449"
       id="rect844"
       inkscape:connector-curvature="0"
       sodipodi:nodetypes="cscccc" />
    <path
       style="fill:#a05a2c;stroke:#000000;stroke-width:3;stroke-linecap:round;stroke-linejoin:round;stroke-miterlimit:4;stroke-dasharray:none;stroke-opacity:1"
       d="M 36.299895,188.76195 C 36.126035,238.22877 45.597375,262.22 54.19793,291.57147 62.7985,262.22 72.26984,238.22877 72.09597,188.76195 71.9221,139.29513 66.26205,116.19051 54.19793,116.19051 c -12.064105,0 -17.724155,23.10462 -17.898035,72.57144 z"
       id="path815"
       inkscape:connector-curvature="0"
       sodipodi:nodetypes="zczzz" />
    <path
       style="fill:#e9c6af;stroke:#000000;stroke-width:3;stroke-linecap:round;stroke-linejoin:round;stroke-miterlimit:4;stroke-dasharray:none;stroke-opacity:1"
       d="m 54.19793,134.81485 c 0,0 -19.272305,-1.12952 -20.945525,-27.41021 -0.68458,-10.752497 2.69566,-19.260412 6.93254,-27.830687 3.3162,-6.707943 14.012985,-17.537939 14.012985,-17.537939 0,0 8.19952,6.919566 14.3597,18.162421 4.07117,7.430255 7.25162,16.7488 6.58583,27.206205 -1.67322,26.28069 -20.94553,27.41021 -20.94553,27.41021"
       id="path821"
       inkscape:connector-curvature="0"
       sodipodi:nodetypes="csacssc" />
    <path
       style="opacity:1;fill:#5599ff;fill-opacity:1;stroke:#000000;stroke-width:3;stroke-linecap:round;stroke-linejoin:round;stroke-miterlimit:4;stroke-dasharray:none"
       d="m 70.52449,152.55682 -58.671105,-0.57953 c -1.14392,-3.77505 -1.75724,-7.83679 -1.75724,-12.13543 0,-24.42382 19.79941,-34.33425 44.223205,-34.33425 24.4238,0 42.09037,9.91077 42.21869,34.33425 0.0668,12.71496 0,0 0.0668,12.71496"
       id="path841"
       inkscape:connector-curvature="0"
       sodipodi:nodetypes="ccsssc" />
    <path
       style="opacity:1;fill:#5599ff;fill-opacity:1;stroke:#000000;stroke-width:3;stroke-linecap:butt;stroke-linejoin:round;stroke-miterlimit:4;stroke-dasharray:none"
       d="m 27.828685,152.27455 c -8.5763,0.006 -16.30867,1.6184 -19.36823,5.89504 -4.89532,6.84262 -6.07772,66.70543 2.93994,76.65158 9.01766,9.94615 25.48407,8.55296 25.48407,8.55296 H 71.65857 c 0,0 24.94628,2.25151 24.94628,-16.00493 0,-18.25644 -24.94628,-15.09211 -24.94628,-15.09211 L 36.884465,211.92156 V 152.5567 c 0,0 -3.90999,-0.28585 -9.05578,-0.28215 z"
       id="rect846"
       inkscape:connector-curvature="0"
       sodipodi:nodetypes="sczccscccs" />
    <circle
       style="opacity:1;fill:#ffffff;fill-opacity:1;stroke:#000000;stroke-width:3;stroke-linecap:round;stroke-linejoin:round;stroke-miterlimit:4;stroke-dasharray:none"
       id="path881"
       cx="29.703087"
       cy="130.25624"
       r="6.4255953" />
    <path
       inkscape:connector-curvature="0"
       style="fill:#ff0000;stroke:#000000;stroke-width:3;stroke-linecap:round;stroke-linejoin:round;stroke-miterlimit:4;stroke-dasharray:none;stroke-opacity:1"
       d="m 54.19814,62.03612 c 0,0 -10.536655,10.669598 -13.935065,17.387569 l 0.18913,0.01654 7.605738,8.330241 6.102987,-8.107516 7.29361,8.150407 7.15357,-7.519954 c -0.0171,-0.03128 -0.0335,-0.06387 -0.0506,-0.09508 C 62.39728,68.955464 54.19814,62.03612 54.19814,62.03612 Z"
       id="path897" />
  </g>
</svg>
